<svg id="Layer_1" data-name="Layer 1" xmlns="http://www.w3.org/2000/svg" viewBox="0 0 100 100"><defs><style>.cls-1{fill:#505150;fill-rule:evenodd;}</style></defs><title>icon_instagram</title><path class="cls-1" d="M66.06,30.39a3.6,3.6,0,1,0,3.53,3.72A3.57,3.57,0,0,0,66.06,30.39Z"/><path class="cls-1" d="M50.16,34.59A15.39,15.39,0,1,0,65.39,50,15.37,15.37,0,0,0,50.16,34.59ZM50,59.95A10,10,0,1,1,60,50,10,10,0,0,1,50,59.95Z"/><path class="cls-1" d="M79.91,41.52a44.17,44.17,0,0,0-.63-8.17A15.54,15.54,0,0,0,72.1,22.79a18.89,18.89,0,0,0-9.55-2.58c-4.06-.12-8.12-.18-12.18-.21-3,0-6,0-9,.08a67.25,67.25,0,0,0-7.45.54A15.32,15.32,0,0,0,24,26.16a16.73,16.73,0,0,0-3.7,10.1c-.22,4.71-.26,9.42-.31,14.13,0,3,0,6.06.08,9.08a36.74,36.74,0,0,0,.71,7.59,15.4,15.4,0,0,0,7.81,10.52,19.37,19.37,0,0,0,8.83,2.18c4.14.13,8.29.18,12.44.26V79.9c2.91,0,5.82.05,8.72,0,2.28-.06,4.58-.16,6.84-.44a15.89,15.89,0,0,0,8.12-3.3,16.18,16.18,0,0,0,6.09-12.39c.26-4.67.26-9.35.32-14C80,47,80,44.26,79.91,41.52Zm-5.6,21.37a13.1,13.1,0,0,1-1.5,5.9A9.9,9.9,0,0,1,65.27,74a42.24,42.24,0,0,1-6,.47q-8.82.1-17.65,0a35.73,35.73,0,0,1-7.34-.57A10.13,10.13,0,0,1,26,65.24a43.23,43.23,0,0,1-.47-6q-.1-8.78,0-17.55a35.4,35.4,0,0,1,.55-7.29,10.21,10.21,0,0,1,9.26-8.5,72,72,0,0,1,7.56-.42q7.8-.09,15.59,0a34.69,34.69,0,0,1,7.14.55,10.2,10.2,0,0,1,8.49,9.27c.29,2.47.35,5,.42,7.46s0,4.82,0,7.23h.1C74.53,54.29,74.46,58.59,74.31,62.89Z"/></svg>