<svg id="Layer_1" data-name="Layer 1" xmlns="http://www.w3.org/2000/svg" viewBox="0 0 100 100"><defs><style>.cls-1{fill:#505150;}</style></defs><title>icon_linkedin</title><path class="cls-1" d="M75.57,20H24.42A4.38,4.38,0,0,0,20,24.31V75.68A4.38,4.38,0,0,0,24.42,80H75.57A4.39,4.39,0,0,0,80,75.68V24.31A4.39,4.39,0,0,0,75.57,20ZM37.79,71.14h-8.9V42.49h8.9ZM33.34,38.57a5.16,5.16,0,1,1,5.16-5.16A5.16,5.16,0,0,1,33.34,38.57Zm37.8,32.56h-8.9V57.21c0-3.32-.06-7.6-4.63-7.6S52.27,53.23,52.27,57V71.14h-8.9V42.49h8.54V46.4H52a9.36,9.36,0,0,1,8.42-4.63c9,0,10.68,5.93,10.68,13.65Z"/></svg>