<svg id="Layer_1" data-name="Layer 1" xmlns="http://www.w3.org/2000/svg" viewBox="0 0 300 100"><defs><style>.cls-1{fill:#505150;}</style></defs><title>icon_logo_rodape</title><polygon class="cls-1" points="51.26 47.12 45.4 41.23 37.35 43.35 43.22 49.25 51.26 47.12"/><polygon class="cls-1" points="46.73 30.89 40.86 24.99 32.82 27.12 38.69 33.02 46.73 30.89"/><polygon class="cls-1" points="34.69 42.63 28.82 36.73 20.78 38.86 26.65 44.76 34.69 42.63"/><polygon class="cls-1" points="19.79 39.87 17.61 47.9 23.48 53.79 25.66 45.76 19.79 39.87"/><polygon class="cls-1" points="8.18 51.73 6 59.76 11.87 65.66 14.04 57.63 8.18 51.73"/><polygon class="cls-1" points="24.19 56.47 22.01 64.49 27.88 70.39 30.06 62.36 24.19 56.47"/><polygon class="cls-1" points="43.57 50.62 41.39 58.65 49.43 56.52 51.61 48.49 43.57 50.62"/><polygon class="cls-1" points="47.64 66.98 45.46 75.01 53.5 72.88 55.68 64.86 47.64 66.98"/><polygon class="cls-1" points="31.39 62.72 29.21 70.75 37.26 68.62 39.43 60.6 31.39 62.72"/><path class="cls-1" d="M107.66,48.37h-5.08a3.23,3.23,0,0,1-2.39-1,3.26,3.26,0,0,1-1-2.39l0-11.3H96.93V45a5.65,5.65,0,0,0,5.65,5.65h5.08Z"/><path class="cls-1" d="M95,33.67v2.27H86v4.5h7.83v2.27H86v5.65h9v2.25H83.75V33.67Z"/><path class="cls-1" d="M125.37,50.62h-2.5l-2-4.52H114l-2,4.52h-2.48l7.9-16.95ZM115,43.85h4.82l-2.41-5.43Z"/><path class="cls-1" d="M138.12,33.67v2.25h-5.65v14.7h-2.25V35.93h-5.65V33.67Z"/><path class="cls-1" d="M153.14,50.62h-2.5l-2-4.52h-6.83l-2,4.52h-2.48l7.9-16.95Zm-10.33-6.78h4.82l-2.41-5.43Z"/><path class="cls-1" d="M183.33,35.95a2.17,2.17,0,0,0-1.6.66,2.21,2.21,0,0,0,0,3.19,2.17,2.17,0,0,0,1.6.66h3.93a5.09,5.09,0,1,1,0,10.17h-7.65V48.37h7.65a2.83,2.83,0,1,0,0-5.67l-3.93,0a4.52,4.52,0,0,1,0-9h7v2.27Z"/><path class="cls-1" d="M194.25,33.67h2.25V50.62h-2.25Z"/><path class="cls-1" d="M202.91,35.95a2.17,2.17,0,0,0-1.6.66,2.22,2.22,0,0,0,0,3.19,2.17,2.17,0,0,0,1.6.66h3.93a5.09,5.09,0,1,1,0,10.17H199.2V48.37h7.65a2.83,2.83,0,1,0,0-5.67l-3.93,0a4.52,4.52,0,0,1,0-9h7v2.27Z"/><path class="cls-1" d="M225.35,33.67v2.25H219.7v14.7h-2.25V35.93H211.8V33.67Z"/><path class="cls-1" d="M238.54,33.67v2.27h-9v4.5h7.83v2.27H229.5v5.65h9v2.25h-11.3V33.67Z"/><path class="cls-1" d="M262.62,50.62H259.9l-3.76-11.75-4.82,7.23-4.83-7.23-3.76,11.75H240l5.65-16.95,1.68,2.49,4,5.88,4-5.88,1.7-2.49Z"/><path class="cls-1" d="M279.94,50.62h-2.5l-2-4.52h-6.83l-2,4.52h-2.48L272,33.67Zm-10.33-6.78h4.82L272,38.42Z"/><path class="cls-1" d="M285,35.95a2.17,2.17,0,0,0-1.6.66,2.22,2.22,0,0,0,0,3.19,2.17,2.17,0,0,0,1.6.66h3.93a5.09,5.09,0,1,1,0,10.17h-7.65V48.37h7.65a2.83,2.83,0,1,0,0-5.67l-3.93,0a4.52,4.52,0,0,1,0-9h7v2.27Z"/><path class="cls-1" d="M80.4,43.12a5.65,5.65,0,0,0-4.19-9.44H70.56V50.62h2.25V43.85l6.1,6.78h2.95L76.8,44.94A5.5,5.5,0,0,0,80.4,43.12Zm-7.58-.42V39.46s0-.09,0-.14v-3.4h3.4a3.39,3.39,0,1,1,0,6.78H72.82Z"/><path class="cls-1" d="M164.87,43.12a5.65,5.65,0,0,0-4.19-9.44H155V50.62h2.25V43.85l6.1,6.78h2.95l-5.06-5.69A5.5,5.5,0,0,0,164.87,43.12Zm-7.58-.42V39.46s0-.09,0-.14v-3.4h3.4a3.39,3.39,0,1,1,0,6.78h-3.39Z"/><path class="cls-1" d="M78.8,66.62a5.16,5.16,0,0,0,.83-.8v-3H76.21V64h2V65.3l-.08.07a4.19,4.19,0,0,1-1.14.7,3.67,3.67,0,0,1-4.74-1.93,3.52,3.52,0,0,1,0-2.79,3.64,3.64,0,0,1,.79-1.14,3.73,3.73,0,0,1,1.16-.77,3.93,3.93,0,0,1,3.09.07,3.5,3.5,0,0,1,1.17.94l1-1a5.35,5.35,0,0,0-1.57-1.17,5,5,0,0,0-2.23-.5,5.14,5.14,0,0,0-2,.39A5.28,5.28,0,0,0,72,59.26,4.92,4.92,0,0,0,71,60.83a4.86,4.86,0,0,0,0,3.86,5,5,0,0,0,1.09,1.57,5.1,5.1,0,0,0,1.62,1,5.26,5.26,0,0,0,3.07.27,4.93,4.93,0,0,0,1.06-.35A5.33,5.33,0,0,0,78.8,66.62Z"/><polygon class="cls-1" points="87.71 59.13 87.71 58.02 81.61 58.02 81.61 67.5 87.71 67.5 87.71 66.3 83.02 66.3 83.02 63.07 87.65 63.07 87.65 62 83.02 62 83.02 59.13 87.71 59.13"/><path class="cls-1" d="M95.65,66.09a2.2,2.2,0,0,0,.22-1,3,3,0,0,0-.15-1,2.22,2.22,0,0,0-.45-.76,3.37,3.37,0,0,0-.81-.64,7.3,7.3,0,0,0-1.24-.56c-.4-.14-.73-.28-1-.4a3.58,3.58,0,0,1-.68-.39,1.4,1.4,0,0,1-.41-.46,1.17,1.17,0,0,1-.13-.54,1.07,1.07,0,0,1,.14-.52,1.39,1.39,0,0,1,.34-.41,1.66,1.66,0,0,1,.49-.27,1.82,1.82,0,0,1,.61-.1,3,3,0,0,1,1.18.21,2.93,2.93,0,0,1,.73.44l1-1a4,4,0,0,0-1.13-.66,5.25,5.25,0,0,0-1.85-.28,3.57,3.57,0,0,0-1.2.2,3,3,0,0,0-1,.55,2.52,2.52,0,0,0-.64.84,2.46,2.46,0,0,0-.23,1.07,2.43,2.43,0,0,0,.21,1,2.61,2.61,0,0,0,.56.78,3.45,3.45,0,0,0,.83.58,9.26,9.26,0,0,0,1,.44c.42.15.77.29,1,.41a3.37,3.37,0,0,1,.67.38,1.28,1.28,0,0,1,.38.45,1.24,1.24,0,0,1,.11.53,1.07,1.07,0,0,1-.14.53,1.31,1.31,0,0,1-.35.4,1.72,1.72,0,0,1-.49.26,1.88,1.88,0,0,1-.59.09,3.92,3.92,0,0,1-1.33-.22,4,4,0,0,1-1.07-.61l-1,1a7.42,7.42,0,0,0,.63.43,4.38,4.38,0,0,0,.83.4,4.84,4.84,0,0,0,.93.23,5.11,5.11,0,0,0,2.37-.14,3.15,3.15,0,0,0,1-.57A2.59,2.59,0,0,0,95.65,66.09Z"/><polygon class="cls-1" points="104.09 58.02 97.1 58.02 97.1 59.26 99.86 59.26 99.86 67.5 101.33 67.5 101.33 59.26 104.09 59.26 104.09 58.02"/><path class="cls-1" d="M111.14,65.51l.92,2h1.58L109.16,58H108l-4.49,9.5h1.59l.94-2ZM108.56,60l2,4.41h-4.1Z"/><path class="cls-1" d="M109,55.43l-.46-.19-.48-.18a1.23,1.23,0,0,0-1.5.51,2.06,2.06,0,0,0-.26.61,3,3,0,0,0-.08.46h.63a1.16,1.16,0,0,1,.13-.26.61.61,0,0,1,.54-.29,1.54,1.54,0,0,1,.54.1l.47.19.46.18a1.39,1.39,0,0,0,1.09-.08,1.34,1.34,0,0,0,.43-.42,1.86,1.86,0,0,0,.25-.61,3.73,3.73,0,0,0,.08-.47h-.63a1,1,0,0,1-.16.29.68.68,0,0,1-.57.26A1.32,1.32,0,0,1,109,55.43Z"/><path class="cls-1" d="M122.69,59.25a5.14,5.14,0,0,0-7.13,0,5,5,0,0,0-1.09,1.57,4.91,4.91,0,0,0,0,3.87,5,5,0,0,0,1.09,1.56,5.21,5.21,0,0,0,1.61,1.06,5.15,5.15,0,0,0,3.91,0,5.21,5.21,0,0,0,1.61-1.06,4.91,4.91,0,0,0,1.09-1.57,4.87,4.87,0,0,0,0-3.85A5,5,0,0,0,122.69,59.25Zm-.25,4.88a3.63,3.63,0,0,1-.77,1.14,3.7,3.7,0,0,1-1.14.77,3.55,3.55,0,0,1-2.81,0,3.73,3.73,0,0,1-1.14-.77,3.64,3.64,0,0,1-.77-1.14,3.54,3.54,0,0,1,0-2.77,3.64,3.64,0,0,1,.77-1.13,3.7,3.7,0,0,1,1.14-.77,3.57,3.57,0,0,1,2.81,0,3.74,3.74,0,0,1,1.14.77,3.66,3.66,0,0,1,.77,1.14,3.53,3.53,0,0,1,0,2.77Z"/><rect class="cls-1" x="130.1" y="58.02" width="1.45" height="9.48"/><polygon class="cls-1" points="141.71 67.5 141.71 58.01 140.3 58.01 140.3 65.09 135.7 58.01 133.9 58.01 133.9 67.5 135.31 67.5 135.31 59.92 140.19 67.5 141.71 67.5"/><polygon class="cls-1" points="150.43 58.02 143.44 58.02 143.44 59.26 146.2 59.26 146.2 67.5 147.67 67.5 147.67 59.26 150.43 59.26 150.43 58.02"/><polygon class="cls-1" points="158.26 59.13 158.26 58.02 152.16 58.02 152.16 67.5 158.26 67.5 158.26 66.3 153.57 66.3 153.57 63.07 158.2 63.07 158.2 62 153.57 62 153.57 59.13 158.26 59.13"/><path class="cls-1" d="M168.11,66.62a5.17,5.17,0,0,0,.83-.8v-3h-3.42V64h2V65.3l-.08.07a4.19,4.19,0,0,1-1.14.7,3.67,3.67,0,0,1-4.74-1.93,3.52,3.52,0,0,1,0-2.79,3.63,3.63,0,0,1,.79-1.14,3.73,3.73,0,0,1,1.16-.77,3.93,3.93,0,0,1,3.09.07,3.5,3.5,0,0,1,1.17.94l1-1a5.35,5.35,0,0,0-1.57-1.17,5,5,0,0,0-2.23-.5,5.14,5.14,0,0,0-2,.39,5.28,5.28,0,0,0-1.63,1.06,4.92,4.92,0,0,0-1.09,1.56,4.86,4.86,0,0,0,0,3.86,5,5,0,0,0,1.09,1.57,5.1,5.1,0,0,0,1.62,1,5.26,5.26,0,0,0,3.07.27,4.92,4.92,0,0,0,1.06-.35A5.32,5.32,0,0,0,168.11,66.62Z"/><path class="cls-1" d="M174.17,63.68a1.9,1.9,0,0,1,.65.4,2.37,2.37,0,0,1,.45.6,3.91,3.91,0,0,1,.3.73l.66,2.1h1.55l-.08-.19c-.08-.2-.17-.44-.26-.72l-.53-1.53-.16-.41a2.25,2.25,0,0,0-.43-.72,1.68,1.68,0,0,0-.67-.44l-.64-.24.65-.22a2.23,2.23,0,0,0,.68-.37,2.76,2.76,0,0,0,.54-.57,2.62,2.62,0,0,0,.35-.7,2.45,2.45,0,0,0,.12-.77,2.63,2.63,0,0,0-.2-1,2.55,2.55,0,0,0-.57-.83,2.62,2.62,0,0,0-.87-.55,3,3,0,0,0-1.09-.2h-3.69V67.5h1.43v-4h1A2.45,2.45,0,0,1,174.17,63.68Zm-1.83-4.73H174a2,2,0,0,1,.74.13,1.86,1.86,0,0,1,.61.38,1.84,1.84,0,0,1,.41.57,1.76,1.76,0,0,1,.15.74,1.69,1.69,0,0,1-.57,1.29,1.8,1.8,0,0,1-.61.35,2.23,2.23,0,0,1-.73.12h-1.64Z"/><path class="cls-1" d="M186.55,65.51l.92,2h1.58L184.57,58h-1.2l-4.49,9.5h1.59l.94-2ZM184,60l2,4.41h-4.1Z"/><path class="cls-1" d="M198.73,64.61a5.3,5.3,0,0,0,0-3.7,4.66,4.66,0,0,0-.92-1.51,4.43,4.43,0,0,0-1.41-1A4.24,4.24,0,0,0,194.6,58h-3.92v9.5h3.92a4.29,4.29,0,0,0,3.2-1.39A4.74,4.74,0,0,0,198.73,64.61Zm-1.4-.46a3.45,3.45,0,0,1-.7,1.15,3.21,3.21,0,0,1-1.11.77,3.74,3.74,0,0,1-1.46.28h-1.93V59h1.93a3.71,3.71,0,0,1,1.49.29,3.23,3.23,0,0,1,1.12.8,3.5,3.5,0,0,1,.7,1.17,4,4,0,0,1,.23,1.41A4.28,4.28,0,0,1,197.33,64.14Z"/><path class="cls-1" d="M207.15,65.51l.92,2h1.58L205.17,58H204l-4.49,9.5h1.59l.94-2ZM204.57,60l2,4.41h-4.1Z"/></svg>