<svg id="Layer_1" data-name="Layer 1" xmlns="http://www.w3.org/2000/svg" xmlns:xlink="http://www.w3.org/1999/xlink" viewBox="0 0 1080 1080"><defs><style>.cls-1{fill:url(#linear-gradient);}.cls-2{fill:url(#linear-gradient-2);}.cls-3{fill:url(#linear-gradient-3);}.cls-4{fill:url(#linear-gradient-4);}.cls-5{fill:url(#linear-gradient-5);}.cls-6{fill:url(#linear-gradient-6);}</style><linearGradient id="linear-gradient" x1="455.84" y1="476.42" x2="455.84" y2="603.7" gradientUnits="userSpaceOnUse"><stop offset="0" stop-color="#c6c6c6"/><stop offset="0.8" stop-color="#9d9d9c"/><stop offset="1" stop-color="#706f6f"/></linearGradient><linearGradient id="linear-gradient-2" x1="540.14" y1="476.69" x2="540.14" y2="603.71" xlink:href="#linear-gradient"/><linearGradient id="linear-gradient-3" x1="755.93" y1="476.5" x2="755.93" y2="603.7" xlink:href="#linear-gradient"/><linearGradient id="linear-gradient-4" x1="624.44" y1="476.76" x2="624.44" y2="603.78" xlink:href="#linear-gradient"/><linearGradient id="linear-gradient-5" x1="328.91" y1="476.28" x2="328.91" y2="603.86" xlink:href="#linear-gradient"/><linearGradient id="linear-gradient-6" x1="540" y1="157.95" x2="540" y2="922.89" xlink:href="#linear-gradient"/></defs><title>o.logo</title><path class="cls-1" d="M502.12,518.83a46.28,46.28,0,0,0-46.23-46.23h-42.3a4,4,0,0,0,0,8.07h42.3a38.16,38.16,0,1,1,0,76.32,4.21,4.21,0,0,0-3,7.06L495,606.2a4,4,0,0,0,5.7-5.7l-36.25-36.25A46.3,46.3,0,0,0,502.12,518.83Z"/><path class="cls-2" d="M540,472.87h0a4,4,0,0,0-4,4l.2,126.45a4,4,0,0,0,4,4h0a4,4,0,0,0,4-4l-.19-126.45A4,4,0,0,0,540,472.87Z"/><path class="cls-3" d="M812.84,602.68,791.27,476a4,4,0,0,0-7.58-1.12L745.32,552,706.6,475.09a4,4,0,1,0-7.2,3.63l42.34,84.1a4,4,0,0,0,3.6,2.22h0a4,4,0,0,0,3.6-2.24l36.45-73.22L804.89,604a4,4,0,1,0,8-1.35Z"/><path class="cls-4" d="M666.63,472.94a4,4,0,0,0-4,4v84.26a38.16,38.16,0,1,1-76.32,0V477a4,4,0,0,0-8.07,0v84.26a46.23,46.23,0,0,0,92.46,0V477A4,4,0,0,0,666.63,472.94Z"/><path class="cls-5" d="M328.91,472.45a67.53,67.53,0,1,0,47.77,19.78A67.12,67.12,0,0,0,328.91,472.45Zm0,127A59.49,59.49,0,1,1,388.4,540,59.55,59.55,0,0,1,328.91,599.49Z"/><path class="cls-6" d="M826.4,253.6C749.9,177.1,648.19,135,540,135S330.1,177.1,253.6,253.6,135,431.81,135,540,177.1,749.9,253.6,826.4,431.81,945,540,945,749.9,902.9,826.4,826.4,945,648.19,945,540,902.9,330.1,826.4,253.6ZM540,896.67c-196.67,0-356.67-160-356.67-356.67S343.33,183.33,540,183.33,896.67,343.33,896.67,540,736.67,896.67,540,896.67Z"/></svg>