<svg id="Layer_1" data-name="Layer 1" xmlns="http://www.w3.org/2000/svg" viewBox="0 0 100 100"><defs><style>.cls-1,.cls-2{fill:#505150;}.cls-1{fill-rule:evenodd;opacity:0.12;}</style></defs><title>icon_youtube</title><path id="The_Sharpness" data-name="The Sharpness" class="cls-1" d="M41.19,37.1,61.4,50.59l2.84-1.47Z"/><g id="Lozenge"><path class="cls-2" d="M91.8,32.94s-.83-5.88-3.39-8.47c-3.24-3.4-6.88-3.41-8.55-3.61C67.93,20,50,20,50,20h0s-17.91,0-29.84.86c-1.67.2-5.3.22-8.55,3.61C9,27.07,8.2,32.94,8.2,32.94a129,129,0,0,0-.85,13.81v6.47A129,129,0,0,0,8.2,67S9,72.91,11.59,75.5c3.25,3.4,7.51,3.29,9.41,3.65,6.82.65,29,.86,29,.86s17.93,0,29.86-.89c1.67-.2,5.3-.22,8.55-3.61C91,72.91,91.8,67,91.8,67a129.19,129.19,0,0,0,.85-13.81V46.75A129.19,129.19,0,0,0,91.8,32.94ZM41.19,61.07v-24l23.05,12Z"/></g></svg>