<?xml version="1.0" encoding="UTF-8"?>
<!-- Generator: Adobe Illustrator 16.0.0, SVG Export Plug-In . SVG Version: 6.00 Build 0)  -->
<!DOCTYPE svg PUBLIC "-//W3C//DTD SVG 1.1//EN" "http://www.w3.org/Graphics/SVG/1.1/DTD/svg11.dtd">
<svg version="1.1" id="Layer_1" xmlns="http://www.w3.org/2000/svg" xmlns:xlink="http://www.w3.org/1999/xlink" x="0px" y="0px" viewBox="0 0 433.839 327.312" enable-background="new 0 0 433.839 327.312" xml:space="preserve">
<g>
	<g>
		<path d="M416.751,235.091l5.898-15.119c-15.07-6.553-31.195-12.156-47.912-16.919c1.615-6.532,2.832-13.22,3.638-20.032    c3.948-1.105,7.686-2.98,11.188-5.654c2.832,4.322,7.523,6.836,13.484,6.836c9.221,0,16.117-6.527,16.775-15.877    c0.145-2.118-0.893-4.144-2.652-5.334c-1.193-0.809-2.643-1.138-4.053-0.977l11.111-52.167c0.404-1.898-0.141-3.877-1.465-5.299    c-1.314-1.427-3.244-2.118-5.172-1.858l-14.559,1.968c-2.496,0.335-4.508,2.202-5.033,4.666l-2.463,11.528    c-4.59,0.444-13.871,0.527-22.891-4.246c-3.047-10.167-7.055-19.916-11.919-29.146c0.603-2.094,1.06-4.312,1.349-6.643    c4.066-3.409,6.299-8.22,7.611-11.028c0.855-1.849,0.717-4.013-0.381-5.727c-1.096-1.722-2.994-2.756-5.031-2.756h-2.449    c-1,0-1.969,0.246-2.82,0.705c-2.719-3.704-6.957-5.755-12.322-5.755c-2.352,0-4.535,0.32-6.56,0.9    c-2.415-2.814-4.925-5.543-7.522-8.187l0.025-0.116c0.406-1.898-0.139-3.872-1.463-5.296c-1.314-1.424-3.238-2.118-5.172-1.861    l-0.874,0.119C296.146,15.82,257.855,0,215.865,0c-42.458,0-81.137,16.171-110.221,42.689c-3.249-3.113-8.104-4.865-14.207-4.865    c-23.796,0-32.661,28.058-32.661,45.738c0,7.244,1.482,12.909,4.433,16.986c-10.953,5.195-20.468,17.076-26.526,26.142    c-0.734-0.035-1.41-0.052-2.034-0.052c-14.843,0-26.03,7.766-26.03,18.061c0,6.764,5.074,11.667,12.063,11.667    c0.19,0,0.384,0,0.572-0.009c-3.343,8.69-5.259,16.507-5.259,22.074c0,8.599,4.282,12.563,7.876,14.374    c3.999,2.02,8.553,2.02,11.274,2.02c2.195,0,4.219-1.213,5.256-3.152c1.037-1.941,0.924-4.296-0.295-6.131    c-0.252-0.373-0.373-1.104-0.373-2.195c0-0.581,0.023-1.214,0.066-1.867l6.669-2.071c0.222,0.716,0.569,1.396,1.052,1.993    c1.133,1.396,2.834,2.214,4.635,2.214h1.278c0.756,6.192,1.851,12.28,3.276,18.24c-14.857,4.427-29.944,9.69-45.516,15.946    l6.768,17c-5.904,1.994-11.893,4.213-17.961,6.646l19.093,59.913l77.604-23.728l1.392,0.028l-0.143-0.41l0.097-0.029    c29.766,30.877,71.548,50.09,117.822,50.09c46.243,0,88-19.186,117.763-50.023l-0.006,0.015l2.332-0.034l78.795,24.092    l19.09-59.913C428.071,239.134,422.372,237.009,416.751,235.091z"/>
		<path d="M416.751,235.091l5.898-15.119c-15.07-6.553-31.195-12.156-47.912-16.919c1.615-6.532,2.832-13.22,3.638-20.032    c3.948-1.105,7.686-2.98,11.188-5.654c2.832,4.322,7.523,6.836,13.484,6.836c9.221,0,16.117-6.527,16.775-15.877    c0.145-2.118-0.893-4.144-2.652-5.334c-1.193-0.809-2.643-1.138-4.053-0.977l11.111-52.167c0.404-1.898-0.141-3.877-1.465-5.299    c-1.314-1.427-3.244-2.118-5.172-1.858l-14.559,1.968c-2.496,0.335-4.508,2.202-5.033,4.666l-2.463,11.528    c-4.59,0.444-13.871,0.527-22.891-4.246c-3.047-10.167-7.055-19.916-11.919-29.146c0.603-2.094,1.06-4.312,1.349-6.643    c4.066-3.409,6.299-8.22,7.611-11.028c0.855-1.849,0.717-4.013-0.381-5.727c-1.096-1.722-2.994-2.756-5.031-2.756h-2.449    c-1,0-1.969,0.246-2.82,0.705c-2.719-3.704-6.957-5.755-12.322-5.755c-2.352,0-4.535,0.32-6.56,0.9    c-2.415-2.814-4.925-5.543-7.522-8.187l0.025-0.116c0.406-1.898-0.139-3.872-1.463-5.296c-1.314-1.424-3.238-2.118-5.172-1.861    l-0.874,0.119C296.146,15.82,257.855,0,215.865,0c-42.458,0-81.137,16.171-110.221,42.689c-3.249-3.113-8.104-4.865-14.207-4.865    c-23.796,0-32.661,28.058-32.661,45.738c0,7.244,1.482,12.909,4.433,16.986c-10.953,5.195-20.468,17.076-26.526,26.142    c-0.734-0.035-1.41-0.052-2.034-0.052c-14.843,0-26.03,7.766-26.03,18.061c0,6.764,5.074,11.667,12.063,11.667    c0.19,0,0.384,0,0.572-0.009c-3.343,8.69-5.259,16.507-5.259,22.074c0,8.599,4.282,12.563,7.876,14.374    c3.999,2.02,8.553,2.02,11.274,2.02c2.195,0,4.219-1.213,5.256-3.152c1.037-1.941,0.924-4.296-0.295-6.131    c-0.252-0.373-0.373-1.104-0.373-2.195c0-0.581,0.023-1.214,0.066-1.867l6.669-2.071c0.222,0.716,0.569,1.396,1.052,1.993    c1.133,1.396,2.834,2.214,4.635,2.214h1.278c0.756,6.192,1.851,12.28,3.276,18.24c-14.857,4.427-29.944,9.69-45.516,15.946    l6.768,17c-5.904,1.994-11.893,4.213-17.961,6.646l19.093,59.913l77.604-23.728l1.392,0.028l-0.143-0.41l0.097-0.029    c29.766,30.877,71.548,50.09,117.822,50.09c46.243,0,88-19.186,117.763-50.023l-0.006,0.015l2.332-0.034l78.795,24.092    l19.09-59.913C428.071,239.134,422.372,237.009,416.751,235.091z"/>
	</g>
	<g>
		<g>
			<path fill="#FFFFFF" d="M81.493,102.385c5.787,0,14.206-2.768,19.217-9.581c0.129,6.157,3.669,8.81,8.17,8.81     c3.158,0,8.351-0.994,12.561-7.064c1.543,5.12,5.432,7.064,9.465,7.064c5.43,0,9.026-3.519,11.32-7.038     c0.609,4.291,3.363,6.582,7.498,6.582c3.141,0,7.882-0.716,11.884-6.556c1.558,5.08,5.432,7.012,9.448,7.012     c5.432,0,9.028-3.519,11.4-7.038c0.46,4.591,3.21,7.038,7.498,7.038c3.144,0,7.891-0.985,11.9-6.969     c1.563,5.047,5.43,6.969,9.439,6.969c5.43,0,9.026-3.519,11.319-7.038c0.611,4.291,3.365,6.582,7.496,6.582     c3.133,0,7.846-0.71,11.848-6.486c1.594,4.866,5.645,6.943,11.1,6.943c6.117,0,11.629-2.601,13.236-11.317     c-2.451,2.141-6.119,4.057-9.029,4.057c-2.678,0-4.742-1.534-4.742-6.351c0-0.688,0.078-1.534,0.154-2.294     c9.18-0.543,17.592-7.27,17.592-16.143c0-3.826-1.604-7.342-8.412-7.342c-15.682,0-20.652,18.434-20.652,27.231     c0,0.24,0.014,0.465,0.021,0.699c-1.201,2.418-2.914,4.042-5.145,4.042c-2.146,0-3.139-0.69-3.139-2.829     c0-0.69,0.076-1.456,0.303-2.45l8.797-41.309l-11.318,1.534l-3.75,17.593v-0.309c0-2.216-1.832-3.897-6.195-3.897     c-13.308,0-19.662,16.443-19.662,26.77c0,0.263,0.023,0.505,0.032,0.757c-1.211,2.629-2.953,4.597-5.232,4.597     c-2.142,0-3.129-1.147-3.129-3.285c0-0.69,0.074-1.456,0.3-2.45l5.51-26.007h-11.014l-0.844,4.054v-0.538     c0-2.216-1.832-3.897-6.194-3.897c-13.306,0-19.653,16.443-19.653,26.77c0,0.243,0.015,0.462,0.023,0.69     c-1.211,2.511-2.95,4.207-5.228,4.207c-2.138,0-3.135-0.69-3.135-2.829c0-0.69,0.075-1.456,0.307-2.45l8.792-41.309     l-11.317,1.534l-3.747,17.593v-0.309c0-2.216-1.835-3.897-6.192-3.897c-13.311,0-19.658,16.443-19.658,26.77     c0,0.182,0.014,0.347,0.014,0.523c-1.393,2.597-3.579,4.374-5.908,4.374c-2.138,0-3.132-0.69-3.132-2.829     c0-0.69,0.075-1.456,0.304-2.45l5.507-26.007h-11.015l-5.2,24.553c-0.023,0.098-0.038,0.185-0.055,0.28     c-3.52,4.528-8.821,7.29-14.635,7.29c-7.342,0-9.177-4.894-9.177-11.933c0-15.602,7.495-35.717,15.909-35.717     c3.444,0,4.666,2.216,4.666,4.663c0,2.907-1.682,6.123-3.52,7.039c1.454,1.682,3.138,1.988,4.363,1.988     c3.897,0,5.354-2.985,5.354-7.036c0-7.42-5.585-10.248-12.773-10.248c-20.04,0-26.697,25.928-26.697,39.771     C64.74,97.329,70.169,102.385,81.493,102.385z M262.466,66.281c1.451,0,1.908,1.219,1.908,3.135     c0,6.423-5.201,12.314-11.162,12.618C254.816,74.767,258.638,66.281,262.466,66.281z M223.15,67.274     c2.293,0,2.984,1.757,3.135,2.673l-3.748,17.518v0.384c-0.994,4.204-4.135,6.348-6.273,6.348c-1.381,0-3.822-0.078-3.822-5.966     C212.441,81.039,216.648,67.274,223.15,67.274z M182.916,67.274c2.444,0,3.132,1.985,3.132,2.898l-3.667,17.292     c-0.921,4.438-4.134,6.732-6.351,6.732c-1.375,0-3.822-0.078-3.822-5.966C172.208,81.039,176.412,67.274,182.916,67.274z      M142.761,67.274c2.294,0,2.984,1.757,3.137,2.673l-3.744,17.518v0.384c-1,4.204-4.135,6.348-6.278,6.348     c-1.375,0-3.822-0.078-3.822-5.966C132.053,81.039,136.263,67.274,142.761,67.274z"/>
			<path fill="#FFFFFF" d="M114.078,58.78c3.369,0,6.122-2.675,6.122-6.042c0-3.363-2.753-6.12-6.122-6.12     c-3.363,0-6.042,2.757-6.042,6.12C108.036,56.104,110.715,58.78,114.078,58.78z"/>
			<path fill="#FFFFFF" d="M296.044,101.614c5.434,0,9.025-3.519,11.318-7.038c0.613,4.291,3.369,6.582,7.498,6.582     c3.145,0,7.885-0.716,11.893-6.559c1.697,4.869,5.979,6.865,11.441,6.865c9.633,0,17.287-9.26,18.203-23.94     c4.055-2.216,6.348-6.963,7.879-10.249h-2.449c-0.842,1.448-2.754,4.739-5.43,5.273c-0.459-6.807-3.672-10.323-9.713-10.323     c-15.756,0-20.732,18.353-20.732,27.15c0,0.266,0.021,0.512,0.029,0.769c-1.201,2.427-2.924,4.054-5.154,4.054     c-2.141,0-3.131-0.69-3.131-2.829c0-0.69,0.072-1.456,0.303-2.45l8.795-41.309l-11.324,1.534l-3.744,17.593v-0.309     c0-2.216-1.838-3.897-6.197-3.897c-13.305,0-19.658,16.443-19.658,26.77C285.871,98.407,290.843,101.614,296.044,101.614z      M347.294,66.893c1.91,0,2.756,1.141,2.906,4.357c-1.301,0.613-2.141,1.91-2.141,3.979c0,1.907,0.615,2.981,1.834,3.441     c-1.146,9.021-4.895,15.906-8.643,15.906c-2.906,0-3.896-1.145-3.896-6.192C337.355,80.889,341.863,66.893,347.294,66.893z      M307.898,67.274c2.297,0,2.984,1.757,3.141,2.673l-3.746,17.518v0.384c-0.998,4.204-4.135,6.348-6.273,6.348     c-1.381,0-3.828-0.078-3.828-5.966C297.191,81.039,301.404,67.274,307.898,67.274z"/>
			<path fill="#FFFFFF" d="M73.995,103.885c-11.508,0-24.299,13.276-34.232,29.011c-2.066-0.19-3.739-0.292-5.114-0.292     c-11.604,0-20.063,5.406-20.063,12.095c0,3.834,2.754,5.698,6.097,5.698c3.051,0,5.507-1.474,5.507-3.834     c0-1.37-0.783-3.042-1.277-3.042c1.277-3.343,5.409-4.721,11.512-5.114c-8.559,15.044-14.461,31.173-14.461,40.025     c0,10.228,7.867,10.427,13.184,10.427c-0.596-0.883-1.381-2.365-1.381-5.512c0-10.229,5.408-28.917,12.785-44.94     c4.328,0.393,8.162,1.28,13.178,3.54l-7.572,35.7h14.166l15.439-72.385C79.401,104.278,76.251,103.885,73.995,103.885z      M60.617,137.62c-3.84-1.575-8.066-2.655-11.999-3.441c5.504-11.017,11.8-20.165,17.703-23.314L60.617,137.62z"/>
			<polygon fill="#FFFFFF" points="293.986,122.472 301.359,122.472 313.263,103.885 302.937,103.885    "/>
			<path fill="#FFFFFF" d="M348.078,126.502c-4.135,0-6.098,2.262-6.098,5.316c0,2.162,1.182,5.013,3.539,5.013     c0.787,0,2.855-0.295,3.146-0.979c0,10.812-7.375,32.842-17.014,32.842c-2.361,0-3.346-1.277-3.346-3.244     c0-0.887,0.195-2.167,0.49-3.542l7.082-33.435h-14.16l-2.783,13.141c-2.738,1.138-5.533,1.907-7.836,1.907     c-0.295,0-0.688,0-1.082-0.199c0-10.323-4.129-15.735-12.59-15.735c-20.26,0-26.949,23.6-26.949,34.908     c0,0.572,0.033,1.112,0.064,1.644c-1.543,2.812-3.316,4.556-6.355,4.556c-2.951,0-3.93-1.67-3.93-4.131     c0-5.51,4.717-17.402,4.717-25.371c0-7.867-4.619-11.109-10.916-11.109c-3.639,0-8.953,1.078-13.668,8.356     c-1.086-6.099-4.918-8.46-10.131-8.46c-3.443,0-7.869,0.884-12.004,5.608l1.086-5.114h-14.167l-2.788,13.141     c-2.739,1.138-5.524,1.907-7.833,1.907c-0.289,0-0.685,0-1.08-0.199c0-10.323-4.129-15.735-12.586-15.735     c-20.26,0-26.945,23.6-26.945,34.908c0,0.263,0.022,0.503,0.028,0.757c-1.794,3.245-4.56,5.443-7.501,5.443     c-2.753,0-4.033-0.881-4.033-3.641c0-0.884,0.099-1.863,0.396-3.146l6.292-29.502h5.9l0.786-3.933h-5.9l3.343-15.542     l-14.55,1.968l-2.956,13.574h-3.245l-0.785,3.933h3.244l-5.9,27.636c-0.002,0.008-0.005,0.02-0.005,0.034     c-1.479,4.898-4.129,8.619-7.958,8.619c-2.756,0-4.03-0.881-4.03-3.641c0-0.884,0.093-1.863,0.394-3.146l7.081-33.435H110.38     l-6.688,31.569c-1.477,4.915-4.034,8.653-7.874,8.653c-2.158,0-2.943-1.768-2.943-4.03c0-0.884,0.098-1.774,0.294-2.756     l7.079-33.435H86.084l-6.687,31.569c-0.494,2.36-0.788,4.521-0.788,6.391c0,8.26,4.626,11.803,10.522,11.803     c4.135,0,9.639-1.277,14.56-9.342c0.589,6.094,4.132,9.342,9.736,9.342c3.999,0,9.994-1.229,15.108-8.662     c1.046,6.021,5.175,8.662,10.263,8.662c4.071,0,10.733-1.277,16.151-9.087c2.167,6.304,7.677,8.89,14.724,8.89     c12.095,0,21.93-11.412,23.502-29.603c2.909-0.479,5.703-1.251,8.249-2.263l-6.678,31.473h14.17l6.688-31.571     c1.474-4.915,4.126-9.145,7.962-9.145c2.164,0,2.947,2.167,2.947,4.328c0,0.884-0.092,1.673-0.291,2.456l-7.178,33.932h14.16     l6.686-31.571c1.477-4.915,4.133-9.046,7.674-9.046c2.361,0,3.543,1.771,3.543,5.016c0,6.29-4.426,18.39-4.426,25.076     c0,5.607,3.045,11.115,11.604,11.115c3.834,0,8.939-1.127,13.564-8.125c2.387,5.611,7.686,7.928,14.365,7.928     c12.098,0,21.93-11.412,23.506-29.603c2.908-0.479,5.703-1.251,8.246-2.271l-3.332,15.744c-0.393,1.872-0.492,3.64-0.492,4.718     c0,7.771,4.627,11.609,12.098,11.609c20.064,0,28.029-27.443,28.029-43.172C354.271,130.735,352.798,126.502,348.078,126.502z      M185.017,148.732c-1.575,11.601-6.591,20.454-11.407,20.454c-3.739,0-5.019-1.48-5.019-7.966c0-9.642,6.1-27.633,13.082-27.633     c2.558,0,3.537,1.572,3.736,5.704c-1.771,0.786-3.048,2.554-3.048,5.313C182.361,146.563,182.947,148.235,185.017,148.732z      M301.556,148.732c-1.568,11.601-6.588,20.454-11.404,20.454c-3.742,0-5.016-1.48-5.016-7.966c0-9.642,6.094-27.633,13.08-27.633     c2.555,0,3.539,1.572,3.732,5.704c-1.768,0.786-3.041,2.554-3.041,5.313C298.908,146.563,299.494,148.235,301.556,148.732z"/>
			<path fill="#FFFFFF" d="M406.693,164.563c0-0.884,0.193-1.869,0.389-2.852l11.313-53.108l-14.559,1.971l-10.523,49.268     c-0.037,0.188-0.066,0.355-0.104,0.541c-4.809,5.437-9.494,9.589-17.105,9.589c-4.715,0-7.082-1.568-7.082-8.26     c0-1.182,0.1-2.554,0.197-3.933c11.803-0.688,22.623-9.445,22.623-20.751c0-4.915-2.068-9.442-10.82-9.442     c-20.162,0-26.557,23.698-26.557,35.015c0,11.109,6.098,15.634,15.344,15.634c10.08,0,17.346-5.43,22.721-12.063     c0,0.02-0.004,0.04-0.004,0.063c0,8.356,4.621,12,10.523,12c5.311,0,10.332-3.346,10.82-10.33     c-0.596,0.299-1.377,0.593-3.148,0.593C407.675,168.498,406.693,166.825,406.693,164.563z M381.81,132.798     c1.865,0,2.459,1.578,2.459,4.034c0,8.162-6.693,15.735-14.262,16.224C371.972,143.321,376.794,132.798,381.81,132.798z"/>
		</g>
		<g>
			<polygon fill-rule="evenodd" clip-rule="evenodd" fill="#ED1C24" points="20.336,240.769 9.214,244.741 26.991,292.799      69.54,277.067 34.631,276.677    "/>
			<polygon fill-rule="evenodd" clip-rule="evenodd" fill="#ED1C24" points="86.937,260.006 59.073,268.136 90.192,267.789    "/>
			<polygon fill-rule="evenodd" clip-rule="evenodd" fill="#ED1C24" points="414.41,241.093 424.623,244.741 406.851,292.799      364.304,277.067 400.654,276.356    "/>
			<polygon fill-rule="evenodd" clip-rule="evenodd" fill="#ED1C24" points="349.134,258.663 379.197,267.789 343.65,267.789    "/>
			<path fill-rule="evenodd" clip-rule="evenodd" fill="#ED1C24" d="M38.844,265.81L22.386,222.36     c67.971-25.645,127.984-34.262,200.131-34.895c60.393,2.336,133.381,15.014,188.941,36.213l-15.801,42.131     C281.519,219.783,151.347,227.526,38.844,265.81z"/>
			<g>
				<path d="M117.773,233.228l0.177-15.207c-2.236-0.512-3.875-0.561-5.678-0.367c-1.699,7.151-2.381,15.23-1.546,19.416      c0.26,1.281,0.699,1.824,1.011,2.13c-2.17,0.442-5.399,1.003-6.237-3.179c-0.723-3.617,0.366-10.693,2.635-17.537      c-2.462,0.658-4.036,1.555-4.282,3.031c0.199-0.041,0.656,0.574,0.771,1.138c0.191,0.968-0.696,1.771-1.938,2.017      c-1.366,0.275-2.646-0.263-2.958-1.834c-0.547-2.729,2.47-5.629,7.208-6.582c0.563-0.113,1.254-0.205,2.115-0.295      c2.773-7.24,6.914-13.719,11.615-14.658c0.927-0.184,2.242-0.279,3.288-0.074l-0.391,30.852L117.773,233.228z M118.101,204.782      c-2.153,1.766-3.979,6.018-5.328,10.973c1.67-0.005,3.487,0.096,5.186,0.426L118.101,204.782z"/>
				<path d="M144.031,207.948l-0.748,14.23c-0.038,0.543-0.015,0.953,0.046,1.317c0.18,1.132,0.76,1.415,1.896,1.239      c1.577-0.254,2.427-1.959,2.716-4.082l1.705-0.264c-1.269,6.958-4.773,8.426-6.961,8.772c-2.309,0.36-3.979-0.749-4.616-3.219      c-1.5,3.644-3.685,4.519-5.389,4.796c-2.427,0.376-4.56-0.783-5.094-4.178c-0.122-0.774-0.142-1.682-0.093-2.688l0.705-13.43      l5.834-0.918l-0.749,14.225c-0.015,0.418,0,0.788,0.061,1.152c0.145,0.93,0.581,1.609,1.474,1.471      c1.58-0.252,2.39-1.951,2.679-4.074l0.705-13.432L144.031,207.948z"/>
				<path d="M155.433,199.942l-0.552,6.605l2.438-0.315l-0.112,1.667l-2.441,0.314l-1.015,12.537      c-0.058,0.543-0.046,0.953,0.003,1.324c0.15,1.135,0.726,1.436,1.866,1.288c1.584-0.208,2.844-1.942,3.19-4.054l1.71-0.226      c-1.459,6.929-5.368,8.347-7.561,8.63c-2.439,0.321-4.543-0.9-4.984-4.313c-0.102-0.771-0.099-1.682-0.018-2.686l0.951-11.738      l-1.338,0.174l0.112-1.671l1.344-0.173l0.491-5.768L155.433,199.942z"/>
				<path d="M173.661,209.688c1.401-0.434,2.239-2.291,2.612-3.109l1.303-0.133c-0.633,1.838-1.601,4.49-3.641,5.891      c0.315,7.88-3.259,13.236-8.396,13.76c-3.791,0.39-6.709-1.124-7.184-5.773c-0.485-4.686,1.164-14.746,9.563-15.605      C171.142,204.384,173.049,206.082,173.661,209.688z M170.532,213.306c-0.674-0.176-1.063-0.714-1.167-1.734      c-0.11-1.1,0.266-1.84,0.927-2.238c-0.26-1.702-0.771-2.271-1.791-2.164c-2.895,0.301-4.536,8.009-4.123,12.002      c0.271,2.693,0.867,3.248,2.416,3.092C168.79,222.054,170.414,218.18,170.532,213.306z"/>
				<path d="M205.784,201.28c-0.736,0.035-1.36-0.186-1.924-0.771c1.074-0.711,1.742-2.256,1.679-3.611      c-0.069-1.431-0.907-2.701-3.161-2.598c-2.251,0.107-3.704,1.447-3.588,3.9c0.279,6.021,9.531,6.408,9.947,15.25      c0.32,6.877-5.082,10.5-11.022,10.777c-4.669,0.223-8.778-1.639-9.009-6.635c-0.211-4.42,2.834-6.861,5.7-6.998      c1.431-0.066,3.505,0.41,3.733,2.535c-2.213,0.104-4.744,1.25-4.614,4.073c0.101,2.046,1.493,3.872,4.114,3.747      c2.745-0.129,4.657-2.23,4.496-5.672c-0.33-7-8.839-9.098-9.125-15.122c-0.196-4.259,3.834-7.524,9.116-7.769      c1.921-0.096,6.61,0.092,6.818,4.602C209.058,199.362,207.833,201.188,205.784,201.28z"/>
				<path d="M221.136,205.776c-1.596,0.006-2.852,2.514-3.092,3.623l-2.751,13.334l-5.902,0.035l5.784-27.908l6.059-0.858      l-2.156,10.344c1.715-1.976,3.514-2.312,4.785-2.319c2.627-0.016,4.557,1.326,4.576,4.605c0.021,3.316-1.918,8.289-1.904,10.588      c0.004,1.021,0.416,1.717,1.65,1.715c1.803-0.012,2.529-1.494,3.422-3.63l1.721-0.015c-2.256,6.738-5.408,7.619-7.584,7.631      c-3.564,0.021-4.846-2.266-4.859-4.603c-0.018-2.791,1.801-7.841,1.785-10.465C222.662,206.501,222.162,205.767,221.136,205.776      z"/>
				<path d="M247.708,208.868c0.158,0.086,0.324,0.095,0.447,0.098c1.885,0.058,4.588-1.084,6.387-2.256l0.332,1.117      c-1.607,1.627-4.352,2.773-7.359,3.173c-0.896,7.556-5.141,12.175-10.182,12.014c-3.809-0.116-6.498-2.009-6.352-6.677      c0.15-4.713,3.248-14.455,11.689-14.189C246.195,202.263,247.843,204.565,247.708,208.868z M244.111,211.015      c-0.852-0.234-1.074-0.939-1.051-1.76c0.037-1.147,0.594-1.867,1.344-2.173c-0.029-1.72-0.416-2.396-1.482-2.425      c-2.906-0.092-5.689,7.322-5.814,11.344c-0.09,2.701,0.426,3.332,1.982,3.381C241.095,219.445,243.302,215.825,244.111,211.015z      "/>
				<path d="M259.595,201.872l-0.867,3.022c1.258-0.938,2.863-1.565,4.908-1.425c2.781,0.191,4.875,1.939,4.539,6.808      c-0.383,5.524-3.129,14.29-11.063,13.739c-2.043-0.145-2.977-0.904-3.375-1.714l-2.816,9.829l-6.275,1.041l9.061-31.707      L259.595,201.872z M262.582,209.767c0.221-3.15-1.07-3.484-1.811-3.537c-0.896-0.061-2.09,0.552-2.959,1.809l-3.203,11.283      c0.129,0.462,0.543,0.982,1.486,1.049C260.386,220.667,262.314,213.612,262.582,209.767z"/>
				<path d="M279.289,203.612l-0.99,2.984c1.293-0.893,2.924-1.453,4.961-1.229c2.77,0.301,4.799,2.136,4.264,6.98      c-0.604,5.499-3.695,14.149-11.598,13.283c-2.039-0.223-2.941-1.026-3.305-1.85l-3.207,9.711l-6.314,0.789l10.32-31.314      L279.289,203.612z M281.953,211.618c0.344-3.141-0.934-3.525-1.662-3.611c-0.898-0.093-2.115,0.471-3.031,1.689l-3.654,11.145      c0.113,0.465,0.506,1.006,1.441,1.109C279.326,222.419,281.539,215.443,281.953,211.618z"/>
				<path d="M298.263,207.57l-4.889,13.38c-0.197,0.509-0.295,0.914-0.348,1.277c-0.158,1.136,0.314,1.574,1.447,1.734      c1.584,0.228,3.266-1.107,4.164-3.049l1.705,0.242c-3.254,6.281-7.4,6.605-9.59,6.299c-2.439-0.352-4.135-2.086-3.652-5.495      c0.113-0.766,0.361-1.647,0.705-2.589l4.611-12.635L298.263,207.57z M297.667,198.669c1.783,0.25,3.037,1.921,2.785,3.703      c-0.254,1.789-1.922,3-3.707,2.748c-1.783-0.26-3-1.878-2.748-3.664C294.25,199.668,295.878,198.414,297.667,198.669z"/>
				<path d="M310.519,213.198c-1.453-0.257-2.844,1.246-3.811,3.15l-5.051,12.467l-5.814-1.035l7.877-19.416l5.811,1.035      l-0.818,2.02c2.037-1.633,3.875-1.641,5.123-1.419c2.584,0.466,4.242,2.13,3.67,5.362c-0.584,3.268-3.393,7.805-3.791,10.064      c-0.182,1.014,0.098,1.765,1.309,1.984c1.773,0.314,2.76-1.008,4.021-2.95l1.693,0.304c-3.438,6.212-6.697,6.51-8.832,6.125      c-3.51-0.624-4.357-3.109-3.953-5.406c0.492-2.742,3.189-7.385,3.65-9.971C311.841,214.187,311.486,213.372,310.519,213.198z"/>
				<path d="M335.335,214.661l5.799,1.311l-10.115,22.084c-2.49,5.443-6.176,5.755-8.813,5.16c-2.436-0.559-4.328-2.785-3.748-5.389      c0.844-3.716,4.225-4.176,8.277-4.436l0.74-1.598c-1.441,0.982-3.227,1.624-5.303,1.162c-2.721-0.621-4.939-2.884-3.865-7.643      c1.217-5.4,6.484-13.244,13.436-11.673c2.277,0.515,3.039,1.609,2.76,2.852L335.335,214.661z M322.091,239.448      c0.84,0.185,2.008-0.35,3.059-2.586l1.018-2.248c-2.711,0.269-4.893,0.994-5.377,3.154      C320.664,238.327,321.208,239.249,322.091,239.448z M324.349,226.088c-0.695,3.079,0.576,3.406,1.295,3.573      c1.078,0.24,2.973-0.338,3.875-2.275l4.23-9.218c0.033-0.537-0.125-1.497-1.326-1.765      C329.025,215.634,325.199,222.329,324.349,226.088z"/>
			</g>
		</g>
		<g>
			<polygon fill-rule="evenodd" clip-rule="evenodd" fill="#808285" points="211.531,32.233 218.828,32.233 215.007,7.443    "/>
			<polygon fill-rule="evenodd" clip-rule="evenodd" fill="#808285" points="224.64,32.464 231.929,32.748 229.072,7.824    "/>
			<polygon fill-rule="evenodd" clip-rule="evenodd" fill="#808285" points="236.359,33.389 243.591,34.357 243.093,9.275    "/>
			<polygon fill-rule="evenodd" clip-rule="evenodd" fill="#808285" points="255.007,37.391 258.07,12.491 247.986,35.406    "/>
			<polygon fill-rule="evenodd" clip-rule="evenodd" fill="#808285" points="272.166,17.694 260.14,39.656 266.972,42.242    "/>
			<polygon fill-rule="evenodd" clip-rule="evenodd" fill="#808285" points="277.783,47.179 285.14,23.192 271.212,44.001    "/>
			<polygon fill-rule="evenodd" clip-rule="evenodd" fill="#808285" points="288.398,53.559 297.193,30.06 282.033,49.988    "/>
			<polygon fill-rule="evenodd" clip-rule="evenodd" fill="#808285" points="298.007,61.034 309.857,38.916 292.177,56.647    "/>
			<polygon fill-rule="evenodd" clip-rule="evenodd" fill="#808285" points="200.61,32.748 207.899,32.464 203.468,7.824    "/>
			<polygon fill-rule="evenodd" clip-rule="evenodd" fill="#808285" points="188.948,34.357 196.181,33.389 189.445,9.275    "/>
			<polygon fill-rule="evenodd" clip-rule="evenodd" fill="#808285" points="177.533,37.391 184.554,35.406 174.465,12.491    "/>
			<polygon fill-rule="evenodd" clip-rule="evenodd" fill="#808285" points="165.568,42.242 172.398,39.656 160.37,17.694    "/>
			<polygon fill-rule="evenodd" clip-rule="evenodd" fill="#808285" points="161.327,44.001 147.4,23.192 154.757,47.179    "/>
			<polygon fill-rule="evenodd" clip-rule="evenodd" fill="#808285" points="150.507,49.988 135.347,30.06 144.142,53.559    "/>
			<polygon fill-rule="evenodd" clip-rule="evenodd" fill="#808285" points="140.365,56.647 122.686,38.916 134.528,61.034    "/>
			<g>
				<polygon fill-rule="evenodd" clip-rule="evenodd" fill="#808285" points="87.577,195.825 64.535,205.759 89.153,201.892     "/>
				<polygon fill-rule="evenodd" clip-rule="evenodd" fill="#808285" points="85.717,183.052 61.909,190.966 86.937,190.246     "/>
				<g>
					<g>
						<polygon fill-rule="evenodd" clip-rule="evenodd" fill="#808285" points="213.768,318.47 217.587,293.681 210.292,293.681               "/>
						<polygon fill-rule="evenodd" clip-rule="evenodd" fill="#808285" points="227.83,318.089 230.687,293.163 223.394,293.446               "/>
						<polygon fill-rule="evenodd" clip-rule="evenodd" fill="#808285" points="241.857,316.638 242.355,291.56 235.117,292.527               "/>
						<polygon fill-rule="evenodd" clip-rule="evenodd" fill="#808285" points="246.744,290.502 256.833,313.423 253.767,288.52               "/>
						<polygon fill-rule="evenodd" clip-rule="evenodd" fill="#808285" points="258.904,286.257 270.927,308.216 265.726,283.671               "/>
						<polygon fill-rule="evenodd" clip-rule="evenodd" fill="#808285" points="269.974,281.906 283.9,302.715 276.544,278.731               "/>
						<polygon fill-rule="evenodd" clip-rule="evenodd" fill="#808285" points="280.794,275.923 295.957,295.851 287.156,272.356               "/>
						<polygon fill-rule="evenodd" clip-rule="evenodd" fill="#808285" points="290.941,269.271 308.619,286.997 296.769,264.88               "/>
						<polygon fill-rule="evenodd" clip-rule="evenodd" fill="#808285" points="300.187,261.687 318.91,278.306 305.744,256.957               "/>
						<polygon fill-rule="evenodd" clip-rule="evenodd" fill="#808285" points="309.042,253.706 329.505,268.136 314.035,248.384               "/>
						<polygon fill-rule="evenodd" clip-rule="evenodd" fill="#808285" points="316.796,244.819 338.476,257.351 327.078,244.796         318.242,242.97       "/>
						<polygon fill-rule="evenodd" clip-rule="evenodd" fill="#808285" points="202.23,318.089 206.663,293.446 199.367,293.163               "/>
						<polygon fill-rule="evenodd" clip-rule="evenodd" fill="#808285" points="188.206,316.638 194.944,292.527 187.706,291.56               "/>
						<polygon fill-rule="evenodd" clip-rule="evenodd" fill="#808285" points="173.228,313.423 183.314,290.502 176.296,288.52               "/>
						<polygon fill-rule="evenodd" clip-rule="evenodd" fill="#808285" points="159.131,308.216 171.156,286.257 164.332,283.671               "/>
						<polygon fill-rule="evenodd" clip-rule="evenodd" fill="#808285" points="153.517,278.731 146.155,302.715 160.087,281.906               "/>
						<polygon fill-rule="evenodd" clip-rule="evenodd" fill="#808285" points="142.905,272.356 134.101,295.851 149.267,275.923               "/>
						<polygon fill-rule="evenodd" clip-rule="evenodd" fill="#808285" points="133.289,264.88 121.442,286.997 139.12,269.271               "/>
						<polygon fill-rule="evenodd" clip-rule="evenodd" fill="#808285" points="124.317,256.957 111.146,278.306 129.871,261.687               "/>
						<polygon fill-rule="evenodd" clip-rule="evenodd" fill="#808285" points="116.025,248.384 100.556,268.136 121.019,253.706               "/>
						<polygon fill-rule="evenodd" clip-rule="evenodd" fill="#808285" points="100.173,248.206 91.582,257.351 113.261,245.637               "/>
					</g>
					<polygon fill-rule="evenodd" clip-rule="evenodd" fill="#808285" points="341.671,202.887 366.544,205.759 343.505,195.825             "/>
					<polygon fill-rule="evenodd" clip-rule="evenodd" fill="#808285" points="344.142,190.246 369.169,190.966 345.365,183.052             "/>
				</g>
			</g>
		</g>
	</g>
</g>
<g>
</g>
<g>
</g>
<g>
</g>
<g>
</g>
<g>
</g>
<g>
</g>
</svg>